<svg id="Layer_1_1" xmlns="http://www.w3.org/2000/svg" width="66" height="53" viewBox="0 0 66 53">
  <defs>
    <style>
      .cls-1 {
        fill: #8147e5;
      }

      .cls-1, .cls-2, .cls-3 {
        fill-rule: evenodd;
      }

      .cls-3 {
        fill: #e24a78;
      }
    </style>
  </defs>
  <g>
    <path id="Path" class="cls-1" d="M48,44.114a8,8,0,0,1-8,8H14a8,8,0,0,1-8-8v-16a8,8,0,0,1,8-8H40a8,8,0,0,1,8,8v16Z"/>
    <path id="Path-2" data-name="Path" class="cls-1" d="M49.461,30.14l13.454-8.772A1.99,1.99,0,0,1,66,23.244V50.777a1.989,1.989,0,0,1-3.06,1.892L48.885,43.886Z"/>
    <path id="Composite_Path" data-name="Composite Path" class="cls-2" d="M35.5,50.115H9.5a9.512,9.512,0,0,1-9.5-9.5v-16a9.512,9.512,0,0,1,9.5-9.5h26a9.512,9.512,0,0,1,9.5,9.5v16A9.512,9.512,0,0,1,35.5,50.115Zm-26-32.01a6.509,6.509,0,0,0-6.5,6.5v16a6.509,6.509,0,0,0,6.5,6.5h26a6.509,6.509,0,0,0,6.5-6.5v-16a6.509,6.509,0,0,0-6.5-6.5H9.5Z"/>
    <path id="Composite_Path-2" data-name="Composite Path" class="cls-2" d="M59.341,51.5a3.694,3.694,0,0,1-1.939-.559L43.22,42.161a1.5,1.5,0,0,1-.709-1.325l0.451-13.745a1.5,1.5,0,0,1,.69-1.215l13.7-8.772A3.657,3.657,0,0,1,63,20.243V47.776A3.7,3.7,0,0,1,59.341,51.5Zm-13.8-11.436L58.98,48.391A0.664,0.664,0,0,0,60,47.776V20.243a0.662,0.662,0,0,0-1.029-.61L45.935,27.978Z"/>
    <path id="Path-3" data-name="Path" class="cls-3" d="M40.68,13.737a5.6,5.6,0,1,1-5.6-5.6A5.6,5.6,0,0,1,40.68,13.737Z"/>
    <path id="Path-4" data-name="Path" class="cls-3" d="M29.568,12.07a7.262,7.262,0,1,1-7.262-7.264A7.263,7.263,0,0,1,29.568,12.07Z"/>
    <path id="Composite_Path-3" data-name="Composite Path" class="cls-2" d="M30.084,17.833a7.1,7.1,0,1,1,7.1-7.1A7.1,7.1,0,0,1,30.084,17.833Zm0-11.194a4.1,4.1,0,1,0,4.1,4.1A4.1,4.1,0,0,0,30.084,6.639Z"/>
    <path id="Composite_Path-4" data-name="Composite Path" class="cls-2" d="M17.307,17.833a8.764,8.764,0,1,1,8.762-8.764A8.773,8.773,0,0,1,17.307,17.833Zm0-14.528a5.764,5.764,0,1,0,5.762,5.763A5.77,5.77,0,0,0,17.307,3.305Z"/>
  </g>
</svg>
